<?xml version="1.0" standalone="no"?><svg xmlns="http://www.w3.org/2000/svg" viewBox="0 0 1440 320"><path fill="#273036" fill-opacity="1" d="M0,256L26.7,261.3C53.3,267,107,277,160,240C213.3,203,267,117,320,106.7C373.3,96,427,160,480,186.7C533.3,213,587,203,640,208C693.3,213,747,235,800,208C853.3,181,907,107,960,80C1013.3,53,1067,75,1120,101.3C1173.3,128,1227,160,1280,154.7C1333.3,149,1387,107,1413,85.3L1440,64L1440,0L1413.3,0C1386.7,0,1333,0,1280,0C1226.7,0,1173,0,1120,0C1066.7,0,1013,0,960,0C906.7,0,853,0,800,0C746.7,0,693,0,640,0C586.7,0,533,0,480,0C426.7,0,373,0,320,0C266.7,0,213,0,160,0C106.7,0,53,0,27,0L0,0Z"></path></svg>